<svg xmlns="http://www.w3.org/2000/svg" viewBox="0 0 200 200">
  <!-- Flame background -->
  <path d="M100 20 C100 20, 60 70, 60 110 C60 140, 80 160, 100 160 C120 160, 140 140, 140 110 C140 70, 100 20, 100 20 Z" fill="#FF4500" />
  <path d="M100 40 C100 40, 75 80, 75 115 C75 135, 90 150, 100 150 C110 150, 125 135, 125 115 C125 80, 100 40, 100 40 Z" fill="#FF8C00" />
  <path d="M100 70 C100 70, 85 100, 85 120 C85 130, 93 140, 100 140 C107 140, 115 130, 115 120 C115 100, 100 70, 100 70 Z" fill="#FFD700" />
  
  <!-- Spatula and Fork crossed -->
  <path d="M60 140 L120 80" stroke="#1A1A2E" stroke-width="8" stroke-linecap="round" />
  <rect x="110" y="70" width="20" height="25" fill="#1A1A2E" transform="rotate(45 120 80)" rx="2" />
  <line x1="113" y1="72" x2="113" y2="88" stroke="#fff" stroke-width="2" transform="rotate(45 120 80)" />
  <line x1="118" y1="72" x2="118" y2="88" stroke="#fff" stroke-width="2" transform="rotate(45 120 80)" />
  <line x1="123" y1="72" x2="123" y2="88" stroke="#fff" stroke-width="2" transform="rotate(45 120 80)" />
  
  <path d="M140 140 L80 80" stroke="#1A1A2E" stroke-width="8" stroke-linecap="round" />
  <path d="M70 70 L80 80 M75 65 L85 75" stroke="#1A1A2E" stroke-width="4" stroke-linecap="round" />
  
  <!-- Text -->
  <text x="100" y="180" font-family="Impact, sans-serif" font-size="24" fill="#1A1A2E" text-anchor="middle" font-weight="bold">BURGER GRILL</text>
  <text x="100" y="195" font-family="Arial, sans-serif" font-size="10" fill="#FF4500" text-anchor="middle" letter-spacing="4">STREET FOOD</text>
</svg>
